<?xml version="1.0" encoding="utf-8"?>
<!-- Generator: Adobe Illustrator 15.1.0, SVG Export Plug-In . SVG Version: 6.00 Build 0)  -->
<!DOCTYPE svg PUBLIC "-//W3C//DTD SVG 1.1//EN" "http://www.w3.org/Graphics/SVG/1.1/DTD/svg11.dtd">
<svg version="1.1" id="Ebene_1" xmlns="http://www.w3.org/2000/svg" xmlns:xlink="http://www.w3.org/1999/xlink" x="0px" y="0px"
	 width="800px" height="800px" viewBox="0 0 800 800" enable-background="new 0 0 800 800" xml:space="preserve">
<g id="Layer_6">
</g>
<g id="Layer_1">
</g>
<g id="Layer_5">
</g>
<g id="Layer_2">
	
		<linearGradient id="SVGID_1_" gradientUnits="userSpaceOnUse" x1="3059.0928" y1="-1986.1968" x2="3101.6182" y2="-1986.1968" gradientTransform="matrix(0.0773 0.124 -0.2504 0.1559 249.3654 207.9534)">
		<stop  offset="0" style="stop-color:#4D3D38"/>
		<stop  offset="0.1333" style="stop-color:#D7B3AA"/>
		<stop  offset="0.2485" style="stop-color:#EEC5BC"/>
		<stop  offset="0.2606" style="stop-color:#FFFFFF"/>
		<stop  offset="0.5939" style="stop-color:#FFFFFF"/>
		<stop  offset="0.6727" style="stop-color:#89706C"/>
		<stop  offset="0.7576" style="stop-color:#706650"/>
		<stop  offset="0.8667" style="stop-color:#FDC21A"/>
		<stop  offset="0.9758" style="stop-color:#FFFFFF"/>
	</linearGradient>
	<path fill="url(#SVGID_1_)" d="M1156.28,177.229c2.468-1.519,3.88-3.707,3.148-4.885l0,0c-0.732-1.176-3.33-0.872-5.782,0.673
		c-53.375,33.469-286.758,177.24-340.26,210.354c-2.468,1.519-3.9,3.646-3.216,4.757l0,0c0.69,1.104,3.25,0.748,5.71-0.796
		C869.207,353.972,1102.637,210.284,1156.28,177.229z"/>
	
		<linearGradient id="SVGID_2_" gradientUnits="userSpaceOnUse" x1="5917.9082" y1="-351.0859" x2="5960.3105" y2="-351.0859" gradientTransform="matrix(0.1369 -0.0512 0.0889 0.2385 441.248 719.9701)">
		<stop  offset="0" style="stop-color:#4D3D38"/>
		<stop  offset="0.1333" style="stop-color:#D7B3AA"/>
		<stop  offset="0.2485" style="stop-color:#EEC5BC"/>
		<stop  offset="0.2606" style="stop-color:#FFFFFF"/>
		<stop  offset="0.5939" style="stop-color:#FFFFFF"/>
		<stop  offset="0.6727" style="stop-color:#89706C"/>
		<stop  offset="0.7576" style="stop-color:#706650"/>
		<stop  offset="0.8667" style="stop-color:#FDC21A"/>
		<stop  offset="0.9758" style="stop-color:#FFFFFF"/>
	</linearGradient>
	<path fill="url(#SVGID_2_)" d="M1165.617,169.3c-0.864-2.351-2.613-3.868-3.913-3.39l0,0c-1.298,0.486-1.626,2.793-0.739,5.13
		c19.193,50.891,100.674,273.073,119.498,324.026c0.865,2.348,2.553,3.877,3.775,3.426l0,0c1.218-0.461,1.486-2.736,0.605-5.082
		C1265.74,442.574,1184.35,220.366,1165.617,169.3z"/>
	
		<linearGradient id="SVGID_3_" gradientUnits="userSpaceOnUse" x1="-2693.937" y1="-349.4785" x2="-2651.6846" y2="-349.4785" gradientTransform="matrix(-0.1567 0.0347 0.1515 0.2267 896.5624 497.7957)">
		<stop  offset="0" style="stop-color:#4D3D38"/>
		<stop  offset="0.1333" style="stop-color:#D7B3AA"/>
		<stop  offset="0.2485" style="stop-color:#EEC5BC"/>
		<stop  offset="0.2606" style="stop-color:#FFFFFF"/>
		<stop  offset="0.5939" style="stop-color:#FFFFFF"/>
		<stop  offset="0.6727" style="stop-color:#89706C"/>
		<stop  offset="0.7576" style="stop-color:#706650"/>
		<stop  offset="0.8667" style="stop-color:#FDC21A"/>
		<stop  offset="0.9758" style="stop-color:#FFFFFF"/>
	</linearGradient>
	<path fill="url(#SVGID_3_)" d="M1156.268,172.811c-1.505-2.222-1.526-4.299-0.042-4.63l0,0c1.485-0.329,3.896,1.227,5.369,3.456
		c32.159,48.485,174.397,258.904,206.908,307.236c1.506,2.224,1.583,4.271,0.188,4.586l0,0c-1.397,0.307-3.734-1.254-5.218-3.493
		C1331.296,431.574,1188.952,221.182,1156.268,172.811z"/>
	
		<linearGradient id="SVGID_4_" gradientUnits="userSpaceOnUse" x1="3152.0381" y1="-4139.8779" x2="3194.9385" y2="-4139.8779" gradientTransform="matrix(0.0795 0.1226 -0.1835 0.1189 19.6742 355.4172)">
		<stop  offset="0" style="stop-color:#4D3D38"/>
		<stop  offset="0.1333" style="stop-color:#D7B3AA"/>
		<stop  offset="0.2485" style="stop-color:#EEC5BC"/>
		<stop  offset="0.2606" style="stop-color:#FFFFFF"/>
		<stop  offset="0.5939" style="stop-color:#FFFFFF"/>
		<stop  offset="0.6727" style="stop-color:#89706C"/>
		<stop  offset="0.7576" style="stop-color:#706650"/>
		<stop  offset="0.8667" style="stop-color:#FDC21A"/>
		<stop  offset="0.9758" style="stop-color:#FFFFFF"/>
	</linearGradient>
	<path fill="url(#SVGID_4_)" d="M1157.805,174.283c1.812-1.155,2.674-3.038,1.922-4.202l0,0c-0.753-1.162-2.833-1.143-4.626,0.036
		c-39.095,25.564-210.364,134.955-249.607,160.175c-1.81,1.156-2.698,2.98-1.99,4.078l0,0c0.711,1.09,2.749,1.021,4.55-0.159
		C947.122,308.745,1118.439,199.436,1157.805,174.283z"/>
</g>
<linearGradient id="SVGID_5_" gradientUnits="userSpaceOnUse" x1="288.7808" y1="210.9297" x2="293.9077" y2="210.9297" gradientTransform="matrix(1 0 0 -1 0 801)">
	<stop  offset="0" style="stop-color:#FFDB05"/>
	<stop  offset="1" style="stop-color:#FEDB39"/>
</linearGradient>
<polygon opacity="0.36" fill="url(#SVGID_5_)" enable-background="new    " points="289.88,594.691 288.781,589.887 
	292.632,585.449 293.908,591.721 "/>
<linearGradient id="SVGID_6_" gradientUnits="userSpaceOnUse" x1="500.7822" y1="167.2632" x2="505.9072" y2="167.2632" gradientTransform="matrix(1 0 0 -1 0 801)">
	<stop  offset="0" style="stop-color:#FFDB05"/>
	<stop  offset="1" style="stop-color:#FEDB39"/>
</linearGradient>
<polygon opacity="0.36" fill="url(#SVGID_6_)" enable-background="new    " points="501.88,638.358 500.782,633.553 
	504.632,629.115 505.907,635.387 "/>
<g>
	
		<linearGradient id="SVGID_7_" gradientUnits="userSpaceOnUse" x1="444.5371" y1="214.1226" x2="433.277" y2="103.3921" gradientTransform="matrix(1 0 0 -1 0 801)">
		<stop  offset="0.0121" style="stop-color:#C06B1F"/>
		<stop  offset="0.3879" style="stop-color:#C09321"/>
		<stop  offset="1" style="stop-color:#FBBB4D"/>
	</linearGradient>
	<polygon fill="url(#SVGID_7_)" points="733.671,683.434 659.942,711.083 141.928,622.838 249.54,582.635 	"/>
</g>
<polygon fill="#FEEE67" points="249.54,582.635 141.928,622.838 148.374,433.918 251.036,374.958 "/>
<linearGradient id="SVGID_8_" gradientUnits="userSpaceOnUse" x1="190.3433" y1="401.2773" x2="203.1586" y2="197.0712" gradientTransform="matrix(1 0 0 -1 0 801)">
	<stop  offset="0" style="stop-color:#EBB416"/>
	<stop  offset="0.9394" style="stop-color:#F7D071"/>
</linearGradient>
<polygon fill="url(#SVGID_8_)" points="156.378,438.736 242.772,389.118 241.416,576.955 150.504,610.92 "/>
<g>
	
		<linearGradient id="SVGID_9_" gradientUnits="userSpaceOnUse" x1="211.1167" y1="415.4072" x2="202.2189" y2="327.9071" gradientTransform="matrix(1 0 0 -1 0 801)">
		<stop  offset="0.0121" style="stop-color:#C06B1F"/>
		<stop  offset="0.3879" style="stop-color:#C09321"/>
		<stop  offset="1" style="stop-color:#FBBB4D"/>
	</linearGradient>
	<polyline fill="url(#SVGID_9_)" points="242.692,401.121 242.339,469.607 165.231,445.778 	"/>
</g>
<linearGradient id="SVGID_10_" gradientUnits="userSpaceOnUse" x1="249.54" y1="270.9712" x2="732.5879" y2="270.9712" gradientTransform="matrix(1 0 0 -1 0 801)">
	<stop  offset="0" style="stop-color:#FEC710"/>
	<stop  offset="1" style="stop-color:#ECB822"/>
</linearGradient>
<polygon fill="url(#SVGID_10_)" points="715.338,526.351 732.588,685.101 249.54,582.635 251.036,374.958 "/>
<linearGradient id="SVGID_11_" gradientUnits="userSpaceOnUse" x1="334.1357" y1="342.7417" x2="1016.9585" y2="-100.6987" gradientTransform="matrix(1 0 0 -1 0 801)">
	<stop  offset="0" style="stop-color:#CB9D1B"/>
	<stop  offset="1" style="stop-color:#F6BC16"/>
</linearGradient>
<polygon fill="url(#SVGID_11_)" points="258.501,575.899 259.869,386.123 708.088,534.351 722.588,673.018 "/>
<path fill="#DBA918" d="M157.716,437.721l-0.977,0.561l-5.875,172.183l8.86-3.311l5.507-161.375
	C162.989,442.982,160.528,440.289,157.716,437.721z"/>
<path fill="#A58023" d="M242.692,401.121l0.088-12.077l-84.963,49.059l7.414,7.675"/>
<g>
	<path fill="#A58023" d="M705.088,534.601c4.229-1.406-0.842,0.496,3.25-1l1.25-2L259.859,386.562l-0.089,8.105"/>
	
		<linearGradient id="SVGID_12_" gradientUnits="userSpaceOnUse" x1="691.6387" y1="213.9229" x2="807.6797" y2="138.5632" gradientTransform="matrix(1 0 0 -1 0 801)">
		<stop  offset="0" style="stop-color:#FFDB05"/>
		<stop  offset="1" style="stop-color:#FEDB39"/>
	</linearGradient>
	<path fill="url(#SVGID_12_)" d="M705.021,534.775l15.316,138.075l4.5,1.25l-15.25-142.5"/>
</g>
<g>
	<g>
		
			<linearGradient id="SVGID_13_" gradientUnits="userSpaceOnUse" x1="261.7188" y1="316.3857" x2="268.062" y2="316.3857" gradientTransform="matrix(1 0 0 -1 0 801)">
			<stop  offset="0" style="stop-color:#C09321"/>
			<stop  offset="1" style="stop-color:#C89A1C"/>
		</linearGradient>
		<path fill="url(#SVGID_13_)" d="M268.062,390.658l-6.003,2.986l-0.34,183.113c3.024,0.815,2.442,1,5.469,1.812L268.062,390.658z"
			/>
		
			<linearGradient id="SVGID_14_" gradientUnits="userSpaceOnUse" x1="268.1689" y1="315.2964" x2="275.3379" y2="315.2964" gradientTransform="matrix(1 0 0 -1 0 801)">
			<stop  offset="0" style="stop-color:#F5BC1B"/>
			<stop  offset="1" style="stop-color:#F5C12B"/>
		</linearGradient>
		<polygon fill="url(#SVGID_14_)" points="275.338,393.304 275.338,580.768 268.338,579.101 268.169,390.64 		"/>
	</g>
	<g>
		
			<linearGradient id="SVGID_15_" gradientUnits="userSpaceOnUse" x1="281.8408" y1="310.8408" x2="288.4209" y2="310.8408" gradientTransform="matrix(1 0 0 -1 0 801)">
			<stop  offset="0" style="stop-color:#C09321"/>
			<stop  offset="1" style="stop-color:#C89A1C"/>
		</linearGradient>
		<path fill="url(#SVGID_15_)" d="M287.839,397.8l-5.998,2.956l0.497,180.345c3.032,0.809,3.048,0.612,6.083,1.417L287.839,397.8z"
			/>
		
			<linearGradient id="SVGID_16_" gradientUnits="userSpaceOnUse" x1="287.9448" y1="310.0166" x2="296.3379" y2="310.0166" gradientTransform="matrix(1 0 0 -1 0 801)">
			<stop  offset="0" style="stop-color:#F5BC1B"/>
			<stop  offset="1" style="stop-color:#F5C12B"/>
		</linearGradient>
		<polygon fill="url(#SVGID_16_)" points="295.138,400.419 296.338,584.184 288.422,582.518 287.945,397.783 		"/>
	</g>
	<g>
		
			<linearGradient id="SVGID_17_" gradientUnits="userSpaceOnUse" x1="301.6807" y1="305.6128" x2="309.1709" y2="305.6128" gradientTransform="matrix(1 0 0 -1 0 801)">
			<stop  offset="0" style="stop-color:#C09321"/>
			<stop  offset="1" style="stop-color:#C89A1C"/>
		</linearGradient>
		<path fill="url(#SVGID_17_)" d="M307.677,403.924l-5.996,2.908l1.49,178.602c3.037,0.794,2.959,0.625,6,1.417L307.677,403.924z"/>
		
			<linearGradient id="SVGID_18_" gradientUnits="userSpaceOnUse" x1="307.7817" y1="304.7056" x2="317.0029" y2="304.7056" gradientTransform="matrix(1 0 0 -1 0 801)">
			<stop  offset="0" style="stop-color:#F5BC1B"/>
			<stop  offset="1" style="stop-color:#F5C12B"/>
		</linearGradient>
		<polygon fill="url(#SVGID_18_)" points="314.999,406.502 317.003,588.684 309.122,587.025 307.782,403.905 		"/>
	</g>
	<g>
		
			<linearGradient id="SVGID_19_" gradientUnits="userSpaceOnUse" x1="321.5986" y1="299.9688" x2="329.8379" y2="299.9688" gradientTransform="matrix(1 0 0 -1 0 801)">
			<stop  offset="0" style="stop-color:#C09321"/>
			<stop  offset="1" style="stop-color:#C89A1C"/>
		</linearGradient>
		<path fill="url(#SVGID_19_)" d="M327.589,410.879l-5.99,2.879l2.406,176.176c3.045,0.787,2.786,0.465,5.833,1.25L327.589,410.879z
			"/>
		
			<linearGradient id="SVGID_20_" gradientUnits="userSpaceOnUse" x1="327.6938" y1="299.1025" x2="337.8379" y2="299.1025" gradientTransform="matrix(1 0 0 -1 0 801)">
			<stop  offset="0" style="stop-color:#F5BC1B"/>
			<stop  offset="1" style="stop-color:#F5C12B"/>
		</linearGradient>
		<polygon fill="url(#SVGID_20_)" points="334.939,413.428 337.838,592.934 329.838,591.184 327.694,410.861 		"/>
	</g>
	<g>
		
			<linearGradient id="SVGID_21_" gradientUnits="userSpaceOnUse" x1="341.916" y1="294.5635" x2="351.0889" y2="294.5635" gradientTransform="matrix(1 0 0 -1 0 801)">
			<stop  offset="0" style="stop-color:#C09321"/>
			<stop  offset="1" style="stop-color:#C89A1C"/>
		</linearGradient>
		<path fill="url(#SVGID_21_)" d="M347.9,417.189l-5.984,2.842l3.195,174.16c3.055,0.776,2.925,0.719,5.978,1.492L347.9,417.189z"/>
		
			<linearGradient id="SVGID_22_" gradientUnits="userSpaceOnUse" x1="348.0068" y1="293.7803" x2="359.0049" y2="293.7803" gradientTransform="matrix(1 0 0 -1 0 801)">
			<stop  offset="0" style="stop-color:#F5BC1B"/>
			<stop  offset="1" style="stop-color:#F5C12B"/>
		</linearGradient>
		<polygon fill="url(#SVGID_22_)" points="355.277,419.707 359.005,597.268 351.088,595.684 348.007,417.172 		"/>
	</g>
	<g>
		
			<linearGradient id="SVGID_23_" gradientUnits="userSpaceOnUse" x1="361.9639" y1="288.999" x2="371.8389" y2="288.999" gradientTransform="matrix(1 0 0 -1 0 801)">
			<stop  offset="0" style="stop-color:#C09321"/>
			<stop  offset="1" style="stop-color:#C89A1C"/>
		</linearGradient>
		<path fill="url(#SVGID_23_)" d="M367.946,423.983l-5.982,2.812l4.208,171.974c3.062,0.768,2.606,0.481,5.667,1.25L367.946,423.983
			z"/>
		
			<linearGradient id="SVGID_24_" gradientUnits="userSpaceOnUse" x1="368.0518" y1="287.77" x2="379.9517" y2="287.77" gradientTransform="matrix(1 0 0 -1 0 801)">
			<stop  offset="0" style="stop-color:#F5BC1B"/>
			<stop  offset="1" style="stop-color:#F5C12B"/>
		</linearGradient>
		<polygon fill="url(#SVGID_24_)" points="375.347,426.473 379.952,602.495 372.017,600.895 368.052,423.965 		"/>
	</g>
	<g>
		
			<linearGradient id="SVGID_25_" gradientUnits="userSpaceOnUse" x1="382.0698" y1="283.5967" x2="392.4639" y2="283.5967" gradientTransform="matrix(1 0 0 -1 0 801)">
			<stop  offset="0" style="stop-color:#C09321"/>
			<stop  offset="1" style="stop-color:#C89A1C"/>
		</linearGradient>
		<path fill="url(#SVGID_25_)" d="M388.052,430.455l-5.982,2.759l4.769,169.638c3.068,0.752,2.559,0.749,5.625,1.5L388.052,430.455z
			"/>
		
			<linearGradient id="SVGID_26_" gradientUnits="userSpaceOnUse" x1="388.1587" y1="282.731" x2="401.3379" y2="282.731" gradientTransform="matrix(1 0 0 -1 0 801)">
			<stop  offset="0" style="stop-color:#F5BC1B"/>
			<stop  offset="1" style="stop-color:#F5C12B"/>
		</linearGradient>
		<polygon fill="url(#SVGID_26_)" points="395.474,432.898 401.338,606.101 392.463,604.351 388.159,430.438 		"/>
	</g>
	<g>
		
			<linearGradient id="SVGID_27_" gradientUnits="userSpaceOnUse" x1="402.248" y1="278.1445" x2="413.4121" y2="278.1445" gradientTransform="matrix(1 0 0 -1 0 801)">
			<stop  offset="0" style="stop-color:#C09321"/>
			<stop  offset="1" style="stop-color:#C89A1C"/>
		</linearGradient>
		<path fill="url(#SVGID_27_)" d="M408.228,437.049l-5.979,2.728l5.591,167.699c3.072,0.744,2.499,0.442,5.573,1.187
			L408.228,437.049z"/>
		
			<linearGradient id="SVGID_28_" gradientUnits="userSpaceOnUse" x1="408.333" y1="277.3091" x2="421.5879" y2="277.3091" gradientTransform="matrix(1 0 0 -1 0 801)">
			<stop  offset="0" style="stop-color:#F5BC1B"/>
			<stop  offset="1" style="stop-color:#F5C12B"/>
		</linearGradient>
		<polygon fill="url(#SVGID_28_)" points="415.673,439.465 421.588,610.351 413.411,608.662 408.333,437.031 		"/>
	</g>
	<g>
		
			<linearGradient id="SVGID_29_" gradientUnits="userSpaceOnUse" x1="422.1348" y1="272.7593" x2="434.3369" y2="272.7593" gradientTransform="matrix(1 0 0 -1 0 801)">
			<stop  offset="0" style="stop-color:#C09321"/>
			<stop  offset="1" style="stop-color:#C89A1C"/>
		</linearGradient>
		<path fill="url(#SVGID_29_)" d="M428.112,443.381l-5.978,2.68l6.452,165.79c3.08,0.73,2.672,0.521,5.75,1.25L428.112,443.381z"/>
		
			<linearGradient id="SVGID_30_" gradientUnits="userSpaceOnUse" x1="428.2178" y1="272.0181" x2="442.4629" y2="272.0181" gradientTransform="matrix(1 0 0 -1 0 801)">
			<stop  offset="0" style="stop-color:#F5BC1B"/>
			<stop  offset="1" style="stop-color:#F5C12B"/>
		</linearGradient>
		<polygon fill="url(#SVGID_30_)" points="435.579,445.754 442.463,614.601 434.338,613.101 428.218,443.363 		"/>
	</g>
	<g>
		
			<linearGradient id="SVGID_31_" gradientUnits="userSpaceOnUse" x1="442.4355" y1="267.4937" x2="454.9619" y2="267.4937" gradientTransform="matrix(1 0 0 -1 0 801)">
			<stop  offset="0" style="stop-color:#C09321"/>
			<stop  offset="1" style="stop-color:#C89A1C"/>
		</linearGradient>
		<path fill="url(#SVGID_31_)" d="M448.409,449.787l-5.974,2.649l7.151,163.664c3.086,0.725,2.289,0.399,5.375,1.125
			L448.409,449.787z"/>
		
			<linearGradient id="SVGID_32_" gradientUnits="userSpaceOnUse" x1="448.5166" y1="266.6274" x2="463.3379" y2="266.6274" gradientTransform="matrix(1 0 0 -1 0 801)">
			<stop  offset="0" style="stop-color:#F5BC1B"/>
			<stop  offset="1" style="stop-color:#F5C12B"/>
		</linearGradient>
		<polygon fill="url(#SVGID_32_)" points="455.901,452.133 463.338,618.976 454.963,617.226 448.517,449.77 		"/>
	</g>
	<g>
		
			<linearGradient id="SVGID_33_" gradientUnits="userSpaceOnUse" x1="462.6445" y1="262.3755" x2="476.3369" y2="262.3755" gradientTransform="matrix(1 0 0 -1 0 801)">
			<stop  offset="0" style="stop-color:#C09321"/>
			<stop  offset="1" style="stop-color:#C89A1C"/>
		</linearGradient>
		<path fill="url(#SVGID_33_)" d="M468.614,455.398l-5.97,2.605l7.567,162.472c3.09,0.711,3.035,0.666,6.125,1.375L468.614,455.398z
			"/>
		
			<linearGradient id="SVGID_34_" gradientUnits="userSpaceOnUse" x1="468.7236" y1="261.5718" x2="484.4629" y2="261.5718" gradientTransform="matrix(1 0 0 -1 0 801)">
			<stop  offset="0" style="stop-color:#F5BC1B"/>
			<stop  offset="1" style="stop-color:#F5C12B"/>
		</linearGradient>
		<polygon fill="url(#SVGID_34_)" points="476.126,457.707 484.463,623.476 476.338,621.851 468.724,455.381 		"/>
	</g>
	<g>
		
			<linearGradient id="SVGID_35_" gradientUnits="userSpaceOnUse" x1="483.0586" y1="257.0718" x2="497.4619" y2="257.0718" gradientTransform="matrix(1 0 0 -1 0 801)">
			<stop  offset="0" style="stop-color:#C09321"/>
			<stop  offset="1" style="stop-color:#C89A1C"/>
		</linearGradient>
		<path fill="url(#SVGID_35_)" d="M489.028,461.631l-5.97,2.578l8.653,160.767c3.098,0.704,2.652,0.547,5.75,1.25L489.028,461.631z"
			/>
		
			<linearGradient id="SVGID_36_" gradientUnits="userSpaceOnUse" x1="489.1338" y1="256.2046" x2="505.5879" y2="256.2046" gradientTransform="matrix(1 0 0 -1 0 801)">
			<stop  offset="0" style="stop-color:#F5BC1B"/>
			<stop  offset="1" style="stop-color:#F5C12B"/>
		</linearGradient>
		<polygon fill="url(#SVGID_36_)" points="496.562,463.915 505.588,627.976 497.463,626.226 489.134,461.615 		"/>
	</g>
</g>
<g>
	
		<linearGradient id="SVGID_37_" gradientUnits="userSpaceOnUse" x1="501.6943" y1="1215.4297" x2="513.7598" y2="1215.4297" gradientTransform="matrix(-0.2009 0.9796 0.0771 0.0158 246.2542 40.2864)">
		<stop  offset="0" style="stop-color:#FFDB05"/>
		<stop  offset="1" style="stop-color:#FEDB39"/>
	</linearGradient>
	<polygon fill="url(#SVGID_37_)" points="241.356,563.714 234.085,558.293 234.093,552.316 241.531,551.434 	"/>
</g>
<g>
	<g>
		
			<linearGradient id="SVGID_38_" gradientUnits="userSpaceOnUse" x1="446.6777" y1="1074.2734" x2="458.7432" y2="1074.2734" gradientTransform="matrix(-0.2009 0.9796 0.0771 0.0158 246.2542 40.2864)">
			<stop  offset="0" style="stop-color:#FFDB05"/>
			<stop  offset="1" style="stop-color:#FEDB39"/>
		</linearGradient>
		<polygon fill="url(#SVGID_38_)" points="241.526,507.59 234.255,502.168 234.263,496.191 241.701,495.31 		"/>
	</g>
</g>
<g>
	<g>
		
			<linearGradient id="SVGID_39_" gradientUnits="userSpaceOnUse" x1="355.3018" y1="851.6172" x2="367.3667" y2="851.6172" gradientTransform="matrix(-0.2009 0.9796 0.0771 0.0158 246.2542 40.2864)">
			<stop  offset="0" style="stop-color:#FFDB05"/>
			<stop  offset="1" style="stop-color:#FEDB39"/>
		</linearGradient>
		<polygon fill="url(#SVGID_39_)" points="242.716,414.559 235.445,409.137 235.454,403.162 242.892,402.279 		"/>
	</g>
</g>
<polygon fill="#7A591D" points="266.245,585.92 271.15,581.22 292.632,585.449 294.166,591.531 "/>
<polygon fill="#7A591D" points="689.75,675.929 694.572,671.538 716.25,676.429 717.588,681.851 "/>
<polygon fill="#7A591D" points="293.908,591.721 289.88,594.691 268.57,590.434 266.197,586.106 "/>
<polygon fill="#7A591D" points="718.404,681.537 714.375,684.508 693.067,680.25 690.692,675.923 "/>
<polygon fill="#7A591D" points="626.827,704.802 630.886,701.864 652.161,706.293 654.497,710.638 "/>
<polygon fill="#7A591D" points="170.119,626.486 174.172,623.549 195.447,627.977 197.784,632.322 "/>
<g>
	
		<linearGradient id="SVGID_40_" gradientUnits="userSpaceOnUse" x1="-18.3198" y1="1280.582" x2="-8.2544" y2="1280.582" gradientTransform="matrix(0.2944 0.9557 0.3531 -0.1088 -203.8486 730.3104)">
		<stop  offset="0" style="stop-color:#C09321"/>
		<stop  offset="1" style="stop-color:#C89A1C"/>
	</linearGradient>
	<polygon fill="url(#SVGID_40_)" points="248.344,582.004 248.637,571.718 240.141,575.524 240.19,584.853 	"/>
	
		<linearGradient id="SVGID_41_" gradientUnits="userSpaceOnUse" x1="-17.9854" y1="1269.3975" x2="-3.4443" y2="1269.3975" gradientTransform="matrix(0.2944 0.9557 0.3698 -0.1139 -213.348 732.8481)">
		<stop  offset="0" style="stop-color:#F5BC1B"/>
		<stop  offset="1" style="stop-color:#F5C12B"/>
	</linearGradient>
	<polygon fill="url(#SVGID_41_)" points="257.666,584.17 248.344,582.004 248.588,571.75 257.764,574.907 	"/>
	<polygon fill="#AB7E24" points="248.902,587.049 257.693,584.16 248.336,581.922 240.19,584.853 	"/>
	<ellipse fill="#7A591D" cx="253.042" cy="578.39" rx="2.853" ry="3.071"/>
	<path fill="#7A591D" d="M246.972,578.363c0,1.643-1.36,3.288-2.807,3.288c-1.448,0-2.313-0.94-2.433-2.578
		c-0.109-1.487,1.34-3.72,2.788-3.72C245.967,575.354,246.972,576.721,246.972,578.363z"/>
</g>
<linearGradient id="SVGID_42_" gradientUnits="userSpaceOnUse" x1="-12.9536" y1="985.5752" x2="-2.5972" y2="985.5752" gradientTransform="matrix(0.2944 0.9557 0.3531 -0.1088 -203.8486 730.3104)">
	<stop  offset="0" style="stop-color:#C09321"/>
	<stop  offset="1" style="stop-color:#C89A1C"/>
</linearGradient>
<polygon fill="url(#SVGID_42_)" points="145.808,619.116 146.036,608.947 137.886,612.683 137.702,622.352 "/>
<linearGradient id="SVGID_43_" gradientUnits="userSpaceOnUse" x1="-12.624" y1="983.0674" x2="-0.4053" y2="983.0674" gradientTransform="matrix(0.2944 0.9557 0.3698 -0.1139 -213.348 732.8481)">
	<stop  offset="0" style="stop-color:#F5BC1B"/>
	<stop  offset="1" style="stop-color:#F5C12B"/>
</linearGradient>
<polygon fill="url(#SVGID_43_)" points="150.672,620.305 145.793,619.2 146.036,608.947 150.864,610.463 "/>
<polygon fill="#AB7E24" points="141.908,623.185 150.7,620.295 145.808,619.116 137.702,622.352 "/>
<path fill="#7A591D" d="M144.358,615.383c0,1.642-1.36,3.288-2.807,3.288c-1.448,0-2.313-0.941-2.433-2.578
	c-0.109-1.488,1.34-3.721,2.788-3.721C143.353,612.373,144.358,613.74,144.358,615.383z"/>
<g>
	
		<linearGradient id="SVGID_44_" gradientUnits="userSpaceOnUse" x1="-193.2417" y1="1151.7129" x2="-183.1636" y2="1151.7129" gradientTransform="matrix(0.3394 0.9406 0.3476 -0.1254 -188.6671 755.2576)">
		<stop  offset="0" style="stop-color:#C09321"/>
		<stop  offset="1" style="stop-color:#C89A1C"/>
	</linearGradient>
	<polygon fill="url(#SVGID_44_)" points="152.262,437.159 152.312,426.822 143.374,431.056 143.272,440.797 	"/>
	
		<linearGradient id="SVGID_45_" gradientUnits="userSpaceOnUse" x1="-193.8135" y1="1143.6338" x2="-181.332" y2="1143.6338" gradientTransform="matrix(0.3394 0.9406 0.364 -0.1314 -197.6981 759.2188)">
		<stop  offset="0" style="stop-color:#F5BC1B"/>
		<stop  offset="1" style="stop-color:#F5C12B"/>
	</linearGradient>
	<polygon fill="url(#SVGID_45_)" points="157.817,438.104 152.25,437.244 152.312,426.822 157.76,428.244 	"/>
	<polygon fill="#AB7E24" points="148.05,441.808 157.849,438.093 152.262,437.159 143.272,440.797 	"/>
	<path fill="#7A591D" d="M150.575,433.509c0.089,1.762-1.292,3.594-2.857,3.661c-1.566,0.069-2.553-0.898-2.772-2.649
		c-0.197-1.593,1.248-4.056,2.815-4.125C149.325,430.327,150.485,431.746,150.575,433.509z"/>
</g>
<linearGradient id="SVGID_46_" gradientUnits="userSpaceOnUse" x1="-207.9478" y1="1442.6992" x2="-196.8667" y2="1442.6992" gradientTransform="matrix(0.2944 0.9557 0.3531 -0.1088 -203.8486 730.3104)">
	<stop  offset="0" style="stop-color:#C09321"/>
	<stop  offset="1" style="stop-color:#C89A1C"/>
</linearGradient>
<polygon fill="url(#SVGID_46_)" points="250.895,382.745 250.95,372.575 240.96,378.541 241.009,387.234 "/>
<linearGradient id="SVGID_47_" gradientUnits="userSpaceOnUse" x1="-207.6377" y1="1427.8477" x2="-192.9922" y2="1427.8477" gradientTransform="matrix(0.2944 0.9557 0.3698 -0.1139 -213.348 732.8481)">
	<stop  offset="0" style="stop-color:#F5BC1B"/>
	<stop  offset="1" style="stop-color:#F5C12B"/>
</linearGradient>
<polygon fill="url(#SVGID_47_)" points="260.656,384.911 250.895,382.745 250.95,372.575 260.759,375.648 "/>
<path fill="#AB7E24" d="M243.987,388.299c-0.008,0.074,6.999-3.391,6.999-3.391l8.216,1.396l1.454-1.395l-9.762-2.166l-9.886,4.49
	C241.009,387.233,243.987,388.299,243.987,388.299z"/>
<ellipse fill="#7A591D" cx="255.814" cy="379.132" rx="2.987" ry="3.071"/>
<path fill="#7A591D" d="M249.084,380.178c0,1.642-1.424,3.288-2.939,3.288c-1.515,0-2.422-0.941-2.547-2.578
	c-0.114-1.488,1.403-3.72,2.919-3.72C248.031,377.169,249.084,378.537,249.084,380.178z"/>
<g>
	
		<linearGradient id="SVGID_48_" gradientUnits="userSpaceOnUse" x1="216.9917" y1="2441.7051" x2="226.6821" y2="2441.7051" gradientTransform="matrix(0.2944 0.9557 0.3531 -0.1088 -203.8486 730.3104)">
		<stop  offset="0" style="stop-color:#C09321"/>
		<stop  offset="1" style="stop-color:#C89A1C"/>
	</linearGradient>
	<polygon fill="url(#SVGID_48_)" points="725.583,680.957 725.37,671.056 721.831,672.942 721.882,682.271 	"/>
	
		<linearGradient id="SVGID_49_" gradientUnits="userSpaceOnUse" x1="217.3066" y1="2371.9395" x2="231.5195" y2="2371.9395" gradientTransform="matrix(0.2944 0.9557 0.3698 -0.1139 -213.348 732.8481)">
		<stop  offset="0" style="stop-color:#F5BC1B"/>
		<stop  offset="1" style="stop-color:#F5C12B"/>
	</linearGradient>
	<polygon fill="url(#SVGID_49_)" points="734.579,683.14 725.583,680.957 725.435,671.084 734.397,674.183 	"/>
	<polygon fill="#AB7E24" points="730.593,684.467 734.579,683.14 725.583,680.957 721.882,682.271 	"/>
	<ellipse fill="#7A591D" cx="730.004" cy="677.362" rx="2.853" ry="3.071"/>
</g>
<g>
	
		<linearGradient id="SVGID_50_" gradientUnits="userSpaceOnUse" x1="501.7188" y1="251.4546" x2="507.8945" y2="251.4546" gradientTransform="matrix(1 0 -0.0524 -1 20.032 801)">
		<stop  offset="0" style="stop-color:#C09321"/>
		<stop  offset="1" style="stop-color:#C89A1C"/>
	</linearGradient>
	<path fill="url(#SVGID_50_)" d="M509.732,468.322l-5.277,2.602l8.384,158.303c2.77,0.71,3.395,0.835,6.167,1.542L509.732,468.322z"
		/>
	
		<linearGradient id="SVGID_51_" gradientUnits="userSpaceOnUse" x1="507.2314" y1="249.917" x2="514.0283" y2="249.917" gradientTransform="matrix(1 0 -0.0524 -1 20.032 801)">
		<stop  offset="0" style="stop-color:#F5BC1B"/>
		<stop  offset="1" style="stop-color:#F5C12B"/>
	</linearGradient>
	<polygon fill="url(#SVGID_51_)" points="516.429,470.627 525.302,633.859 518.901,632.407 509.83,468.307 	"/>
</g>
<g>
	
		<linearGradient id="SVGID_52_" gradientUnits="userSpaceOnUse" x1="519.6113" y1="246.5894" x2="525.6514" y2="246.5894" gradientTransform="matrix(1 0 -0.0524 -1 20.032 801)">
		<stop  offset="0" style="stop-color:#C09321"/>
		<stop  offset="1" style="stop-color:#C89A1C"/>
	</linearGradient>
	<path fill="url(#SVGID_52_)" d="M527.93,474.221l-5.274,2.578l8.934,156.427c2.776,0.706,2.596,0.673,5.375,1.375L527.93,474.221z"
		/>
	
		<linearGradient id="SVGID_53_" gradientUnits="userSpaceOnUse" x1="525.1182" y1="245.4775" x2="532.9971" y2="245.4775" gradientTransform="matrix(1 0 -0.0524 -1 20.032 801)">
		<stop  offset="0" style="stop-color:#F5BC1B"/>
		<stop  offset="1" style="stop-color:#F5C12B"/>
	</linearGradient>
	<polygon fill="url(#SVGID_53_)" points="534.646,476.505 544.427,636.84 537.199,635.385 528.026,474.205 	"/>
</g>
<g>
	
		<linearGradient id="SVGID_54_" gradientUnits="userSpaceOnUse" x1="537.5215" y1="241.8765" x2="544.4551" y2="241.8765" gradientTransform="matrix(1 0 -0.0524 -1 20.032 801)">
		<stop  offset="0" style="stop-color:#C09321"/>
		<stop  offset="1" style="stop-color:#C89A1C"/>
	</linearGradient>
	<path fill="url(#SVGID_54_)" d="M546.135,479.896l-5.274,2.532l9.979,154.797c2.782,0.69,2.342,0.438,5.125,1.125L546.135,479.896z
		"/>
	
		<linearGradient id="SVGID_55_" gradientUnits="userSpaceOnUse" x1="543.0244" y1="240.6772" x2="551.6641" y2="240.6772" gradientTransform="matrix(1 0 -0.0524 -1 20.032 801)">
		<stop  offset="0" style="stop-color:#F5BC1B"/>
		<stop  offset="1" style="stop-color:#F5C12B"/>
	</linearGradient>
	<polygon fill="url(#SVGID_55_)" points="552.867,482.141 563.3,640.765 556.104,639.321 546.229,479.881 	"/>
</g>
<g>
	
		<linearGradient id="SVGID_56_" gradientUnits="userSpaceOnUse" x1="555.5146" y1="236.7798" x2="563.2373" y2="236.7798" gradientTransform="matrix(1 0 -0.0524 -1 20.032 801)">
		<stop  offset="0" style="stop-color:#C09321"/>
		<stop  offset="1" style="stop-color:#C89A1C"/>
	</linearGradient>
	<path fill="url(#SVGID_56_)" d="M564.444,485.965l-5.274,2.507l10.543,152.754c2.785,0.684,2.461,0.564,5.25,1.25L564.444,485.965z
		"/>
	
		<linearGradient id="SVGID_57_" gradientUnits="userSpaceOnUse" x1="561.0156" y1="235.7886" x2="570.4834" y2="235.7886" gradientTransform="matrix(1 0 -0.0524 -1 20.032 801)">
		<stop  offset="0" style="stop-color:#F5BC1B"/>
		<stop  offset="1" style="stop-color:#F5C12B"/>
	</linearGradient>
	<polygon fill="url(#SVGID_57_)" points="571.201,488.183 582.313,644.474 575.009,642.949 564.539,485.949 	"/>
</g>
<g>
	
		<linearGradient id="SVGID_58_" gradientUnits="userSpaceOnUse" x1="573.8555" y1="231.9224" x2="582.2832" y2="231.9224" gradientTransform="matrix(1 0 -0.0524 -1 20.032 801)">
		<stop  offset="0" style="stop-color:#C09321"/>
		<stop  offset="1" style="stop-color:#C89A1C"/>
	</linearGradient>
	<path fill="url(#SVGID_58_)" d="M583.082,491.805l-5.268,2.468l11.022,150.828c2.795,0.674,2.584,0.579,5.375,1.25L583.082,491.805
		z"/>
	
		<linearGradient id="SVGID_59_" gradientUnits="userSpaceOnUse" x1="579.3506" y1="230.979" x2="589.6045" y2="230.979" gradientTransform="matrix(1 0 -0.0524 -1 20.032 801)">
		<stop  offset="0" style="stop-color:#F5BC1B"/>
		<stop  offset="1" style="stop-color:#F5C12B"/>
	</linearGradient>
	<polygon fill="url(#SVGID_59_)" points="589.863,493.99 601.633,648.254 594.408,646.879 583.18,491.788 	"/>
</g>
<g>
	
		<linearGradient id="SVGID_60_" gradientUnits="userSpaceOnUse" x1="591.9707" y1="226.9585" x2="601.2012" y2="226.9585" gradientTransform="matrix(1 0 -0.0524 -1 20.032 801)">
		<stop  offset="0" style="stop-color:#C09321"/>
		<stop  offset="1" style="stop-color:#C89A1C"/>
	</linearGradient>
	<path fill="url(#SVGID_60_)" d="M601.51,497.732l-5.271,2.441l11.975,149.052c2.801,0.667,2.324,0.457,5.125,1.125L601.51,497.732z
		"/>
	
		<linearGradient id="SVGID_61_" gradientUnits="userSpaceOnUse" x1="597.4629" y1="225.7354" x2="608.5293" y2="225.7354" gradientTransform="matrix(1 0 -0.0524 -1 20.032 801)">
		<stop  offset="0" style="stop-color:#F5BC1B"/>
		<stop  offset="1" style="stop-color:#F5C12B"/>
	</linearGradient>
	<polygon fill="url(#SVGID_61_)" points="608.308,499.895 620.796,652.814 613.555,651.425 601.603,497.715 	"/>
</g>
<g>
	
		<linearGradient id="SVGID_62_" gradientUnits="userSpaceOnUse" x1="610.1357" y1="222.0908" x2="619.8291" y2="222.0908" gradientTransform="matrix(1 0 -0.0524 -1 20.032 801)">
		<stop  offset="0" style="stop-color:#C09321"/>
		<stop  offset="1" style="stop-color:#C89A1C"/>
	</linearGradient>
	<path fill="url(#SVGID_62_)" d="M619.969,503.377l-5.271,2.396l12.334,147.365c2.805,0.651,2.344,0.648,5.149,1.303
		L619.969,503.377z"/>
	
		<linearGradient id="SVGID_63_" gradientUnits="userSpaceOnUse" x1="615.6318" y1="221.3379" x2="627.8477" y2="221.3379" gradientTransform="matrix(1 0 -0.0524 -1 20.032 801)">
		<stop  offset="0" style="stop-color:#F5BC1B"/>
		<stop  offset="1" style="stop-color:#F5C12B"/>
	</linearGradient>
	<polygon fill="url(#SVGID_63_)" points="626.786,505.5 640.279,655.961 632.183,654.441 620.067,503.363 	"/>
</g>
<g>
	
		<linearGradient id="SVGID_64_" gradientUnits="userSpaceOnUse" x1="628.3486" y1="217.1655" x2="638.752" y2="217.1655" gradientTransform="matrix(1 0 -0.0524 -1 20.032 801)">
		<stop  offset="0" style="stop-color:#C09321"/>
		<stop  offset="1" style="stop-color:#C89A1C"/>
	</linearGradient>
	<path fill="url(#SVGID_64_)" d="M638.499,509.465l-5.271,2.362l12.984,145.349c2.811,0.646,2.277,0.385,5.09,1.028L638.499,509.465
		z"/>
	
		<linearGradient id="SVGID_65_" gradientUnits="userSpaceOnUse" x1="633.8389" y1="216.1001" x2="646.1758" y2="216.1001" gradientTransform="matrix(1 0 -0.0524 -1 20.032 801)">
		<stop  offset="0" style="stop-color:#F5BC1B"/>
		<stop  offset="1" style="stop-color:#F5C12B"/>
	</linearGradient>
	<polygon fill="url(#SVGID_65_)" points="645.338,511.559 658.838,660.351 651.338,658.851 638.594,509.449 	"/>
</g>
<g>
	
		<linearGradient id="SVGID_66_" gradientUnits="userSpaceOnUse" x1="646.2988" y1="212.2778" x2="657.6562" y2="212.2778" gradientTransform="matrix(1 0 -0.0524 -1 20.032 801)">
		<stop  offset="0" style="stop-color:#C09321"/>
		<stop  offset="1" style="stop-color:#C89A1C"/>
	</linearGradient>
	<path fill="url(#SVGID_66_)" d="M656.756,515.365l-5.271,2.316l13.673,143.317c2.815,0.634,2.438,0.449,5.251,1.08L656.756,515.365
		z"/>
	
		<linearGradient id="SVGID_67_" gradientUnits="userSpaceOnUse" x1="651.7861" y1="211.2749" x2="665.2295" y2="211.2749" gradientTransform="matrix(1 0 -0.0524 -1 20.032 801)">
		<stop  offset="0" style="stop-color:#F5BC1B"/>
		<stop  offset="1" style="stop-color:#F5C12B"/>
	</linearGradient>
	<polygon fill="url(#SVGID_67_)" points="663.61,517.415 678.088,664.101 670.338,662.851 656.85,515.35 	"/>
</g>
<g>
	
		<linearGradient id="SVGID_68_" gradientUnits="userSpaceOnUse" x1="664.6064" y1="206.9009" x2="676.2686" y2="206.9009" gradientTransform="matrix(1 0 -0.0524 -1 20.032 801)">
		<stop  offset="0" style="stop-color:#C09321"/>
		<stop  offset="1" style="stop-color:#C89A1C"/>
	</linearGradient>
	<path fill="url(#SVGID_68_)" d="M675.401,521.877l-5.27,2.285l14.205,141.188c2.82,0.625,2.083,0.347,4.906,0.971L675.401,521.877z
		"/>
	
		<linearGradient id="SVGID_69_" gradientUnits="userSpaceOnUse" x1="670.1104" y1="206.3374" x2="684.0195" y2="206.3374" gradientTransform="matrix(1 0 -0.0524 -1 20.032 801)">
		<stop  offset="0" style="stop-color:#F5BC1B"/>
		<stop  offset="1" style="stop-color:#F5C12B"/>
	</linearGradient>
	<polygon fill="url(#SVGID_69_)" points="682.264,523.264 697.088,668.101 689.588,666.851 675.482,521.225 	"/>
</g>
<g>
	
		<linearGradient id="SVGID_70_" gradientUnits="userSpaceOnUse" x1="682.8252" y1="202.0381" x2="695.6387" y2="202.0381" gradientTransform="matrix(1 0 -0.0524 -1 20.032 801)">
		<stop  offset="0" style="stop-color:#C09321"/>
		<stop  offset="1" style="stop-color:#C89A1C"/>
	</linearGradient>
	<path fill="url(#SVGID_70_)" d="M693.898,527.323l-5.266,2.229l14.705,139.798c2.827,0.606,2.677,0.645,5.5,1.25L693.898,527.323z"
		/>
	
		<linearGradient id="SVGID_71_" gradientUnits="userSpaceOnUse" x1="688.3057" y1="201.2954" x2="702.8105" y2="201.2954" gradientTransform="matrix(1 0 -0.0524 -1 20.032 801)">
		<stop  offset="0" style="stop-color:#F5BC1B"/>
		<stop  offset="1" style="stop-color:#F5C12B"/>
	</linearGradient>
	<polygon fill="url(#SVGID_71_)" points="700.791,529.299 716.088,672.101 708.838,670.601 693.996,527.309 	"/>
</g>
<g>
	
		<linearGradient id="SVGID_72_" gradientUnits="userSpaceOnUse" x1="67.1787" y1="2493.9336" x2="76.2354" y2="2493.9336" gradientTransform="matrix(0.3623 0.9321 0.3444 -0.1339 -176.1989 794.3169)">
		<stop  offset="0" style="stop-color:#C09321"/>
		<stop  offset="1" style="stop-color:#C89A1C"/>
	</linearGradient>
	<polygon fill="url(#SVGID_72_)" points="710.928,531.094 710.046,521.817 706.646,523.842 707.327,532.592 	"/>
	
		<linearGradient id="SVGID_73_" gradientUnits="userSpaceOnUse" x1="67.5342" y1="2421.7988" x2="81.0195" y2="2421.7988" gradientTransform="matrix(0.3623 0.9321 0.3607 -0.1402 -185.4983 797.5419)">
		<stop  offset="0" style="stop-color:#F5BC1B"/>
		<stop  offset="1" style="stop-color:#F5C12B"/>
	</linearGradient>
	<polygon fill="url(#SVGID_73_)" points="720.049,532.494 710.928,531.094 710.004,521.93 719.262,524.103 	"/>
	<polygon fill="#AB7E24" points="716.162,534.027 720.049,532.494 710.928,531.094 707.327,532.592 	"/>
	
		<ellipse transform="matrix(-0.0718 -0.9974 0.9974 -0.0718 240.4135 1278.5089)" fill="#7A591D" cx="715.091" cy="527.391" rx="2.89" ry="2.853"/>
</g>
<g id="Layer_3">
</g>
<g id="perspektive" display="none">
	<line display="inline" fill="none" stroke="#AB7E24" x1="46.333" y1="321.478" x2="2289.496" y2="1047.559"/>
	<line display="inline" fill="none" stroke="#AB7E24" x1="-44.001" y1="520.719" x2="2395.991" y2="1050.559"/>
	<line display="inline" fill="none" stroke="#AB7E24" x1="-59.197" y1="587.413" x2="903.234" y2="752.884"/>
	<line display="inline" fill="none" stroke="#AB7E24" x1="286.94" y1="521.562" x2="-100.565" y2="662.55"/>
	<line display="inline" fill="none" stroke="#AB7E24" x1="843.923" y1="595.905" x2="456.417" y2="736.893"/>
	<line display="inline" fill="none" stroke="#AB7E24" x1="-13.5" y1="402.5" x2="2102.5" y2="986.5"/>
</g>
<g>
	
		<linearGradient id="SVGID_74_" gradientUnits="userSpaceOnUse" x1="166.6753" y1="274.3989" x2="173.4312" y2="274.3989" gradientTransform="matrix(1.0002 -0.0523 0.0297 -1.0014 -8.1632 808.6043)">
		<stop  offset="0" style="stop-color:#C09321"/>
		<stop  offset="1" style="stop-color:#C89A1C"/>
	</linearGradient>
	<path fill="url(#SVGID_74_)" d="M175.839,444.261l-6.805,1.996l-4.361,159.316l5.561-1.989L175.839,444.261z"/>
	
		<linearGradient id="SVGID_75_" gradientUnits="userSpaceOnUse" x1="172.5493" y1="275.248" x2="179.9546" y2="275.248" gradientTransform="matrix(1.0002 -0.0523 0.0297 -1.0014 -8.1632 808.6043)">
		<stop  offset="0" style="stop-color:#F5BC1B"/>
		<stop  offset="1" style="stop-color:#F5C12B"/>
	</linearGradient>
	<polygon fill="url(#SVGID_75_)" points="182.326,445.238 177.705,600.802 170.233,603.584 175.839,444.261 	"/>
</g>
<g>
	
		<linearGradient id="SVGID_76_" gradientUnits="userSpaceOnUse" x1="186.5786" y1="274.5391" x2="193.0347" y2="274.5391" gradientTransform="matrix(1.0002 -0.0523 0.0297 -1.0014 -8.1632 808.6043)">
		<stop  offset="0" style="stop-color:#C09321"/>
		<stop  offset="1" style="stop-color:#C89A1C"/>
	</linearGradient>
	<path fill="url(#SVGID_76_)" d="M194.81,449.343l-6.087,3.217l-4.142,145.617l6.341-2.395L194.81,449.343z"/>
	
		<linearGradient id="SVGID_77_" gradientUnits="userSpaceOnUse" x1="192.6841" y1="275.5791" x2="200.6265" y2="275.5791" gradientTransform="matrix(1.0002 -0.0523 0.0297 -1.0014 -8.1632 808.6043)">
		<stop  offset="0" style="stop-color:#F5BC1B"/>
		<stop  offset="1" style="stop-color:#F5C12B"/>
	</linearGradient>
	<polygon fill="url(#SVGID_77_)" points="202.033,451.544 198.589,592.915 190.922,595.782 194.917,449.32 	"/>
</g>
<g>
	
		<linearGradient id="SVGID_78_" gradientUnits="userSpaceOnUse" x1="206.4155" y1="274.8647" x2="213.2544" y2="274.8647" gradientTransform="matrix(1.0002 -0.0523 0.0297 -1.0014 -8.1632 808.6043)">
		<stop  offset="0" style="stop-color:#C09321"/>
		<stop  offset="1" style="stop-color:#C89A1C"/>
	</linearGradient>
	<path fill="url(#SVGID_78_)" d="M214.47,454.348l-6.083,3.172l-2.768,132.874l5.72-2.157L214.47,454.348z"/>
	
		<linearGradient id="SVGID_79_" gradientUnits="userSpaceOnUse" x1="212.5181" y1="275.8027" x2="221.1167" y2="275.8027" gradientTransform="matrix(1.0002 -0.0523 0.0297 -1.0014 -8.1632 808.6043)">
		<stop  offset="0" style="stop-color:#F5BC1B"/>
		<stop  offset="1" style="stop-color:#F5C12B"/>
	</linearGradient>
	<polygon fill="url(#SVGID_79_)" points="221.717,456.509 219.279,585.235 211.339,588.236 214.575,454.325 	"/>
</g>
<g>
	
		<linearGradient id="SVGID_80_" gradientUnits="userSpaceOnUse" x1="226.3306" y1="274.8027" x2="233.5581" y2="274.8027" gradientTransform="matrix(1.0002 -0.0523 0.0297 -1.0014 -8.1632 808.6043)">
		<stop  offset="0" style="stop-color:#C09321"/>
		<stop  offset="1" style="stop-color:#C89A1C"/>
	</linearGradient>
	<path fill="url(#SVGID_80_)" d="M234.179,460.169l-6.077,3.142l-1.728,119.269l5.47-2.063L234.179,460.169z"/>
	
		<linearGradient id="SVGID_81_" gradientUnits="userSpaceOnUse" x1="232.4272" y1="275.6934" x2="241.3521" y2="275.6934" gradientTransform="matrix(1.0002 -0.0523 0.0297 -1.0014 -8.1632 808.6043)">
		<stop  offset="0" style="stop-color:#F5BC1B"/>
		<stop  offset="1" style="stop-color:#F5C12B"/>
	</linearGradient>
	<polygon fill="url(#SVGID_81_)" points="241.454,462.295 239.714,577.593 231.839,580.53 234.285,460.147 	"/>
</g>
<polygon fill="#DBA918" points="146.945,610.092 71.833,598.834 80.5,421.834 152.584,441.269 "/>
<linearGradient id="SVGID_82_" gradientUnits="userSpaceOnUse" x1="81.521" y1="517.001" x2="143.1875" y2="517.001">
	<stop  offset="0" style="stop-color:#C09321"/>
	<stop  offset="1" style="stop-color:#C89A1C"/>
</linearGradient>
<polygon fill="url(#SVGID_82_)" points="138.521,599.001 81.521,590.001 88.854,435.001 143.188,449.668 "/>
<polygon fill="#FEEE67" points="71.833,598.834 69.167,599.834 77.837,423.834 80.5,421.834 "/>
<polygon fill="#A58023" points="144.333,610.917 69.194,599.834 71.861,598.834 146.945,610.092 "/>
<polygon fill="#FEEE67" points="136.25,598.625 138.521,599.001 143.167,449.501 140.837,451.168 "/>
<polygon fill="#DBA918" points="142.104,485.167 86.833,471.834 87.5,462.834 142.5,476.501 "/>
<polygon fill="#A58023" points="140.837,451.168 88.837,437.501 88.833,434.834 143.167,449.501 "/>
<linearGradient id="SVGID_83_" gradientUnits="userSpaceOnUse" x1="115.3911" y1="466.5449" x2="114.5273" y2="470.757">
	<stop  offset="0" style="stop-color:#FFDB05"/>
	<stop  offset="1" style="stop-color:#FEDB39"/>
</linearGradient>
<polygon fill="url(#SVGID_83_)" points="142.333,476.459 87.5,462.834 87.585,460.842 140.165,474.151 "/>
<polygon fill="#A58023" points="139.604,490.521 86.812,478.5 87.125,471.938 142.104,485.167 "/>
<polygon fill="#DBA918" points="140,569.75 82.583,558.834 82.25,549.5 140.5,561 "/>
<polygon fill="#A58023" points="137,575.333 82.788,565.7 83,558.922 139.453,569.641 "/>
<linearGradient id="SVGID_84_" gradientUnits="userSpaceOnUse" x1="112.0371" y1="552.4727" x2="111.2969" y2="556.0821" gradientTransform="matrix(0.9992 -0.0399 0.0399 0.9992 -22.0941 4.9996)">
	<stop  offset="0" style="stop-color:#FFDB05"/>
	<stop  offset="1" style="stop-color:#FEDB39"/>
</linearGradient>
<polygon fill="url(#SVGID_84_)" points="139.719,560.844 83.438,549.719 83.524,547.907 137.5,558.516 "/>
<polygon fill="#A58023" points="154,447 152.375,447.375 152.542,442.959 154.125,443.625 "/>
<polygon fill="#A58023" points="152.75,484.125 151.125,484.5 151.292,480.084 152.875,480.75 "/>
<polygon fill="#A58023" points="149.875,568.083 148.25,568.458 148.417,564.042 150,564.708 "/>
<polygon fill="#A58023" points="148.625,606.708 147,607.083 147.167,602.667 148.75,603.333 "/>
<polygon fill="#DBA918" points="242.786,572.204 304.216,534.479 303.798,343.646 244.522,389.302 "/>
<linearGradient id="SVGID_85_" gradientUnits="userSpaceOnUse" x1="253.1855" y1="456.291" x2="304.9277" y2="456.291" gradientTransform="matrix(-0.982 0.3628 -0.046 1.0177 569.005 -107.006)">
	<stop  offset="0" style="stop-color:#C09321"/>
	<stop  offset="1" style="stop-color:#C89A1C"/>
</linearGradient>
<polygon fill="url(#SVGID_85_)" points="249.947,557.21 295.801,528.048 295.778,360.853 251.84,395.319 "/>
<polygon fill="#FEEE67" points="304.216,534.479 307.12,534.676 306.564,345.139 303.798,343.646 "/>
<polygon fill="#A58023" points="245.896,572.163 307.12,534.676 304.193,534.488 242.786,572.204 "/>
<polygon fill="#FEEE67" points="252.619,555.693 250.044,557.215 251.864,395.127 254.08,396.207 "/>
<polygon fill="#DBA918" points="250.054,434.591 296.355,400.505 296.157,390.879 251.387,424.46 "/>
<polygon fill="#A58023" points="254.08,396.207 295.828,364.5 295.778,360.853 251.864,395.127 "/>
<linearGradient id="SVGID_86_" gradientUnits="userSpaceOnUse" x1="282.8413" y1="399.2432" x2="280.7974" y2="409.2096" gradientTransform="matrix(-0.9815 0.3578 -0.0513 1.0175 570.9565 -105.4932)">
	<stop  offset="0" style="stop-color:#FFDB05"/>
	<stop  offset="1" style="stop-color:#FEDB39"/>
</linearGradient>
<polygon fill="url(#SVGID_86_)" points="251.387,424.46 295.804,390.975 295.822,388.822 253.732,420.725 "/>
<polygon fill="#A58023" points="253.834,438.744 295.896,407.785 295.893,400.705 251.398,433.524 "/>
<polygon fill="#DBA918" points="249.937,525.691 296.981,494.327 297.601,483.996 249.858,516.284 "/>
<polygon fill="#A58023" points="252.773,530.838 295.828,502.43 295.944,495.237 250.385,525.391 "/>
<linearGradient id="SVGID_87_" gradientUnits="userSpaceOnUse" x1="281.5278" y1="498.9639" x2="279.7588" y2="507.59" gradientTransform="matrix(-0.9963 0.3211 -0.0859 1.0314 595.988 -109.6772)">
	<stop  offset="0" style="stop-color:#FFDB05"/>
	<stop  offset="1" style="stop-color:#FEDB39"/>
</linearGradient>
<polygon fill="url(#SVGID_87_)" points="250.499,515.851 295.828,485.146 295.828,483.173 252.926,512.049 "/>
<polygon fill="#A58023" points="243.157,396.054 244.463,395.914 244.493,391.138 243.183,392.402 "/>
<polygon fill="#A58023" points="242.784,436.271 244.091,436.134 244.121,431.357 242.809,432.619 "/>
<polygon fill="#A58023" points="241.979,527.209 243.285,527.07 243.315,522.293 242.003,523.555 "/>
<polygon fill="#A58023" points="241.549,569.068 242.855,568.93 242.885,564.151 241.573,565.416 "/>
</svg>
